<svg xmlns="http://www.w3.org/2000/svg" fill="none" viewBox="0 0 35 43"><path d="M34.83 16.79a1.94 1.94 0 0 0-1.774-1.154h-11.77L24.572 2.43a1.96 1.96 0 0 0-.978-2.203 1.94 1.94 0 0 0-2.361.43L.492 24.111A1.96 1.96 0 0 0 .17 26.21a1.94 1.94 0 0 0 1.773 1.154h11.77L10.427 40.57a1.96 1.96 0 0 0 .979 2.203 1.94 1.94 0 0 0 2.361-.43l20.74-23.454a1.96 1.96 0 0 0 .321-2.1M16.121 33.8l1.968-7.916a1.96 1.96 0 0 0-.354-1.677 1.94 1.94 0 0 0-1.532-.751h-9.93L18.88 9.2l-1.97 7.916a1.96 1.96 0 0 0 .355 1.677 1.94 1.94 0 0 0 1.532.752h9.93z" fill="#BF9ACA"/></svg>