<svg xmlns="http://www.w3.org/2000/svg" fill="none" viewBox="0 0 78 78"><g filter="url(#a)"><path fill-rule="evenodd" clip-rule="evenodd" d="M31.77 38.558s-6.977-3.321-15.42-.71c2.867-2.68 8.358-6.127 10.16-6.92 1.647-.723 7.346-.923 7.99-.945.433-.747 7.358-21.386 27.185-17.302l.176.084c-14.463 2.732-16.492 17.873-15.809 18.828.7.979 4.812 1.013 8.57.765 3.243-.214 6.222-.637 6.523-.844-.163.184-8.695 9.752-18.267 8.666-.43 1.311-3.122 9.54-10.195 14.054-6.395 4.08-17.227 3.695-16.51 3.556 8.065-2.282 15.598-19.232 15.598-19.232" fill="url(#b)"/><path fill-rule="evenodd" clip-rule="evenodd" d="M43.168 40.625c-2.363 6.933-6.819 12.446-11.947 14.925-6.085 2.942-14.484 2.877-15.155 2.721a.474.474 0 0 1-.023-.928c1.372-.37 2.721-1.33 2.936-1.482 5.552-3.95 10.483-13.525 12.12-17.045q-.135-.054-.32-.125c-3.498-1.328-6.916-1.378-7.529-1.387-3.94-.057-6.617.935-6.845.965a.425.425 0 0 1-.343-.73c.276-.276.962-.843 1.047-.913 3.2-2.645 8.224-5.712 9.539-6.15 1.874-.626 6.646-.8 7.62-.838 1.055-2.503 8.344-21.135 27.368-17.316.196.04.194.045.372.134.287.145.25.57-.083.646-.613.138-4.514.736-8.2 3.646-6.626 5.233-7.692 13.56-7.364 14.64.821.936 6.341.873 11.371.31 1.433-.16 2.82-.368 3.21-.516l.005.009c.037-.016.07-.041.107-.055.1-.038.389.008.465.27.058.196-.065.345-.084.369 0 0-1.77 2.013-4.603 4.117-6.901 5.128-12.003 4.877-13.664 4.733m-11.181-2.52c.043.037.096.062.14.099a.52.52 0 0 1 .13.477c-.027.112-1.133 2.525-2.756 5.41-3.354 5.96-7.282 11.13-11.18 13.297 3.347-.1 9.837-.767 14.206-3.577 7.367-4.74 9.87-13.613 9.984-13.826a.42.42 0 0 1 .412-.218c.739.056 3.841.531 8.426-1.533 3.984-1.794 7.156-4.62 8.608-6.05-.334.054-.75.113-1.266.178-2.847.355-10.839 1.059-12.66-.277-.36-.263-.484-.523-.46-1.426.06-2.217 1.353-8.084 5.732-12.66 3.16-3.3 6.685-4.63 8.966-5.226-4.317-.678-13.314-.993-20.754 8.859-3.152 4.174-4.53 8.25-4.707 8.522-.14.217-.32.182-.601.193-2.826.116-6.41.418-7.547.926-1.32.59-5.457 3.08-8.636 5.682a23.9 23.9 0 0 1 11.22.22c1.581.413 2.53.835 2.743.93" fill="url(#c)"/><path d="M8.39 30.548a.7.7 0 0 0-.487-.777l-3.406-1.049a.703.703 0 0 1-.467-.873l2.362-7.916a.703.703 0 0 1 .88-.472l3.738 1.15a.704.704 0 0 0 .825-.337 31 31 0 0 1 2.033-3.239.7.7 0 0 0-.07-.906l-2.894-2.92a.704.704 0 0 1-.003-.987l5.735-5.861a.703.703 0 0 1 1.002-.004l3.021 3.05c.24.241.62.277.9.082a31 31 0 0 1 2.724-1.673.7.7 0 0 0 .344-.8L23.568 3.04a.703.703 0 0 1 .494-.86L31.906.026a.704.704 0 0 1 .866.497l.896 3.363c.092.346.43.567.784.514a33 33 0 0 1 3.702-.33.7.7 0 0 1 .72.702v5c0 .38-.302.69-.682.702-13.086.473-23.93 11.537-24.096 24.406a.7.7 0 0 1-.702.697l-4.638.001a.703.703 0 0 1-.703-.707c.013-1.466.128-2.91.338-4.322m35.828 35.263a32.5 32.5 0 0 1-4.616.426.7.7 0 0 1-.711-.703v-5.232c0-.255.205-.462.46-.465 13.123-.168 24.042-10.926 24.653-23.545a.7.7 0 0 1 .701-.673l4.642-.001a.703.703 0 0 1 .703.728 31 31 0 0 1-.287 3.203c-.05.343.157.67.488.773l3.253 1.006c.37.114.577.504.466.874l-2.372 7.913a.703.703 0 0 1-.881.47c-.942-.29-2.629-.812-3.502-1.083a.704.704 0 0 0-.829.342 31 31 0 0 1-2.082 3.35c-.2.28-.17.661.071.905l2.702 2.734c.27.273.271.713.002.987l-5.741 5.854a.703.703 0 0 1-1.003.002l-2.8-2.833a.7.7 0 0 0-.902-.083 31 31 0 0 1-2.858 1.757.7.7 0 0 0-.347.8l.973 3.669a.703.703 0 0 1-.495.859L46.06 69.99a.704.704 0 0 1-.865-.498z" fill="url(#d)"/></g><defs><linearGradient id="b" x1="-3.932" y1="33.071" x2="85.797" y2="33.736" gradientUnits="userSpaceOnUse"><stop stop-color="#FF875C"/><stop offset="0" stop-color="#FE875E"/><stop offset=".48" stop-color="#BF9ACA"/><stop offset="1" stop-color="#96C5B0"/></linearGradient><linearGradient id="c" x1="-3.932" y1="33.071" x2="85.797" y2="33.736" gradientUnits="userSpaceOnUse"><stop stop-color="#FF875C"/><stop offset="0" stop-color="#FE875E"/><stop offset=".48" stop-color="#BF9ACA"/><stop offset="1" stop-color="#96C5B0"/></linearGradient><linearGradient id="d" x1="-25.5" y1="32" x2="109.5" y2="33" gradientUnits="userSpaceOnUse"><stop stop-color="#FF875C"/><stop offset="0" stop-color="#FE875E"/><stop offset=".48" stop-color="#BF9ACA"/><stop offset="1" stop-color="#96C5B0"/></linearGradient><filter id="a" x="0" y="0" width="78" height="78.015" filterUnits="userSpaceOnUse" color-interpolation-filters="sRGB"><feFlood flood-opacity="0" result="BackgroundImageFix"/><feColorMatrix in="SourceAlpha" values="0 0 0 0 0 0 0 0 0 0 0 0 0 0 0 0 0 0 127 0" result="hardAlpha"/><feOffset dy="4"/><feGaussianBlur stdDeviation="2"/><feComposite in2="hardAlpha" operator="out"/><feColorMatrix values="0 0 0 0 0.117647 0 0 0 0 0.0941176 0 0 0 0 0.145098 0 0 0 1 0"/><feBlend in2="BackgroundImageFix" result="effect1_dropShadow_3714_510"/><feBlend in="SourceGraphic" in2="effect1_dropShadow_3714_510" result="shape"/></filter></defs></svg>