<svg xmlns="http://www.w3.org/2000/svg" fill="none" viewBox="0 0 44 44"><path d="M3.95 11.77c3.93-3.75 8.02-4.32 11.5-3.36a15 15 0 0 1 5.82 3.23 17 17 0 0 1 6.51-3.2c3.73-.87 8.17-.35 12.2 3.42 5.27 4.94 4.64 12.14 2.18 17.96a31 31 0 0 1-5 8.06c-1.96 2.28-4.2 4.17-6.4 5.2a11 11 0 0 1-7.03.62c-.87-.2-1.7-.48-2.39-.84q-.84.51-1.9.8a9.4 9.4 0 0 1-6.41-.64c-2.18-1.04-4.38-2.94-6.3-5.22a31 31 0 0 1-4.93-8.07c-2.4-5.82-3.03-13.01 2.15-17.96m10.45.49c-2.14-.58-4.77-.37-7.69 2.4-3.38 3.24-3.39 8.3-1.21 13.54a27 27 0 0 0 4.28 7.02 16 16 0 0 0 4.97 4.19c1.36.64 2.7.64 3.67.38q.64-.2.9-.38a2 2 0 0 1 3.73-.17h.01q.47.3 1.54.56a7 7 0 0 0 4.46-.34 17 17 0 0 0 5.06-4.18c1.72-2 3.28-4.45 4.36-7.01 2.2-5.24 2.2-10.27-1.24-13.49-2.93-2.74-5.95-3.05-8.55-2.44a13 13 0 0 0-6 3.4 2 2 0 0 1-2.96-.02 12 12 0 0 0-5.33-3.46M14.23.65a2 2 0 0 1 2.82-.13L21.5 4.6a2 2 0 0 1-2.7 2.95l-4.44-4.06a2 2 0 0 1-.13-2.83" fill="#BF9ACA"/></svg>